<?xml version="1.0" encoding="utf-8" standalone="no"?>
<!DOCTYPE svg PUBLIC "-//W3C//DTD SVG 1.1//EN"
  "http://www.w3.org/Graphics/SVG/1.1/DTD/svg11.dtd">
<!-- Created with matplotlib (http://matplotlib.org/) -->
<svg height="216pt" version="1.1" viewBox="0 0 504 216" width="504pt" xmlns="http://www.w3.org/2000/svg" xmlns:xlink="http://www.w3.org/1999/xlink">
 <defs>
  <style type="text/css">
*{stroke-linecap:butt;stroke-linejoin:round;}
  </style>
 </defs>
 <g id="figure_1">
  <g id="patch_1">
   <path d="M 0 216 
L 504 216 
L 504 0 
L 0 0 
z
" style="fill:#ffffff;"/>
  </g>
  <g id="axes_1">
   <g id="patch_2">
    <path d="M 50.4 183.6 
L 225.704348 183.6 
L 225.704348 21.6 
L 50.4 21.6 
z
" style="fill:#ffffff;"/>
   </g>
   <g id="matplotlib.axis_1">
    <g id="xtick_1">
     <g id="line2d_1">
      <defs>
       <path d="M 0 0 
L 0 3.5 
" id="mb02ce57dfd" style="stroke:#000000;stroke-width:0.8;"/>
      </defs>
      <g>
       <use style="stroke:#000000;stroke-width:0.8;" x="50.4" xlink:href="#mb02ce57dfd" y="183.6"/>
      </g>
     </g>
     <g id="text_1">
      <!-- 0.5 -->
      <defs>
       <path d="M 31.78125 66.40625 
Q 24.171875 66.40625 20.328125 58.90625 
Q 16.5 51.421875 16.5 36.375 
Q 16.5 21.390625 20.328125 13.890625 
Q 24.171875 6.390625 31.78125 6.390625 
Q 39.453125 6.390625 43.28125 13.890625 
Q 47.125 21.390625 47.125 36.375 
Q 47.125 51.421875 43.28125 58.90625 
Q 39.453125 66.40625 31.78125 66.40625 
z
M 31.78125 74.21875 
Q 44.046875 74.21875 50.515625 64.515625 
Q 56.984375 54.828125 56.984375 36.375 
Q 56.984375 17.96875 50.515625 8.265625 
Q 44.046875 -1.421875 31.78125 -1.421875 
Q 19.53125 -1.421875 13.0625 8.265625 
Q 6.59375 17.96875 6.59375 36.375 
Q 6.59375 54.828125 13.0625 64.515625 
Q 19.53125 74.21875 31.78125 74.21875 
z
" id="DejaVuSans-30"/>
       <path d="M 10.6875 12.40625 
L 21 12.40625 
L 21 0 
L 10.6875 0 
z
" id="DejaVuSans-2e"/>
       <path d="M 10.796875 72.90625 
L 49.515625 72.90625 
L 49.515625 64.59375 
L 19.828125 64.59375 
L 19.828125 46.734375 
Q 21.96875 47.46875 24.109375 47.828125 
Q 26.265625 48.1875 28.421875 48.1875 
Q 40.625 48.1875 47.75 41.5 
Q 54.890625 34.8125 54.890625 23.390625 
Q 54.890625 11.625 47.5625 5.09375 
Q 40.234375 -1.421875 26.90625 -1.421875 
Q 22.3125 -1.421875 17.546875 -0.640625 
Q 12.796875 0.140625 7.71875 1.703125 
L 7.71875 11.625 
Q 12.109375 9.234375 16.796875 8.0625 
Q 21.484375 6.890625 26.703125 6.890625 
Q 35.15625 6.890625 40.078125 11.328125 
Q 45.015625 15.765625 45.015625 23.390625 
Q 45.015625 31 40.078125 35.4375 
Q 35.15625 39.890625 26.703125 39.890625 
Q 22.75 39.890625 18.8125 39.015625 
Q 14.890625 38.140625 10.796875 36.28125 
z
" id="DejaVuSans-35"/>
      </defs>
      <g transform="translate(42.448438 198.198438)scale(0.1 -0.1)">
       <use xlink:href="#DejaVuSans-30"/>
       <use x="63.623047" xlink:href="#DejaVuSans-2e"/>
       <use x="95.410156" xlink:href="#DejaVuSans-35"/>
      </g>
     </g>
    </g>
    <g id="xtick_2">
     <g id="line2d_2">
      <g>
       <use style="stroke:#000000;stroke-width:0.8;" x="85.46087" xlink:href="#mb02ce57dfd" y="183.6"/>
      </g>
     </g>
     <g id="text_2">
      <!-- 0.6 -->
      <defs>
       <path d="M 33.015625 40.375 
Q 26.375 40.375 22.484375 35.828125 
Q 18.609375 31.296875 18.609375 23.390625 
Q 18.609375 15.53125 22.484375 10.953125 
Q 26.375 6.390625 33.015625 6.390625 
Q 39.65625 6.390625 43.53125 10.953125 
Q 47.40625 15.53125 47.40625 23.390625 
Q 47.40625 31.296875 43.53125 35.828125 
Q 39.65625 40.375 33.015625 40.375 
z
M 52.59375 71.296875 
L 52.59375 62.3125 
Q 48.875 64.0625 45.09375 64.984375 
Q 41.3125 65.921875 37.59375 65.921875 
Q 27.828125 65.921875 22.671875 59.328125 
Q 17.53125 52.734375 16.796875 39.40625 
Q 19.671875 43.65625 24.015625 45.921875 
Q 28.375 48.1875 33.59375 48.1875 
Q 44.578125 48.1875 50.953125 41.515625 
Q 57.328125 34.859375 57.328125 23.390625 
Q 57.328125 12.15625 50.6875 5.359375 
Q 44.046875 -1.421875 33.015625 -1.421875 
Q 20.359375 -1.421875 13.671875 8.265625 
Q 6.984375 17.96875 6.984375 36.375 
Q 6.984375 53.65625 15.1875 63.9375 
Q 23.390625 74.21875 37.203125 74.21875 
Q 40.921875 74.21875 44.703125 73.484375 
Q 48.484375 72.75 52.59375 71.296875 
z
" id="DejaVuSans-36"/>
      </defs>
      <g transform="translate(77.509307 198.198438)scale(0.1 -0.1)">
       <use xlink:href="#DejaVuSans-30"/>
       <use x="63.623047" xlink:href="#DejaVuSans-2e"/>
       <use x="95.410156" xlink:href="#DejaVuSans-36"/>
      </g>
     </g>
    </g>
    <g id="xtick_3">
     <g id="line2d_3">
      <g>
       <use style="stroke:#000000;stroke-width:0.8;" x="120.521739" xlink:href="#mb02ce57dfd" y="183.6"/>
      </g>
     </g>
     <g id="text_3">
      <!-- 0.7 -->
      <defs>
       <path d="M 8.203125 72.90625 
L 55.078125 72.90625 
L 55.078125 68.703125 
L 28.609375 0 
L 18.3125 0 
L 43.21875 64.59375 
L 8.203125 64.59375 
z
" id="DejaVuSans-37"/>
      </defs>
      <g transform="translate(112.570177 198.198438)scale(0.1 -0.1)">
       <use xlink:href="#DejaVuSans-30"/>
       <use x="63.623047" xlink:href="#DejaVuSans-2e"/>
       <use x="95.410156" xlink:href="#DejaVuSans-37"/>
      </g>
     </g>
    </g>
    <g id="xtick_4">
     <g id="line2d_4">
      <g>
       <use style="stroke:#000000;stroke-width:0.8;" x="155.582609" xlink:href="#mb02ce57dfd" y="183.6"/>
      </g>
     </g>
     <g id="text_4">
      <!-- 0.8 -->
      <defs>
       <path d="M 31.78125 34.625 
Q 24.75 34.625 20.71875 30.859375 
Q 16.703125 27.09375 16.703125 20.515625 
Q 16.703125 13.921875 20.71875 10.15625 
Q 24.75 6.390625 31.78125 6.390625 
Q 38.8125 6.390625 42.859375 10.171875 
Q 46.921875 13.96875 46.921875 20.515625 
Q 46.921875 27.09375 42.890625 30.859375 
Q 38.875 34.625 31.78125 34.625 
z
M 21.921875 38.8125 
Q 15.578125 40.375 12.03125 44.71875 
Q 8.5 49.078125 8.5 55.328125 
Q 8.5 64.0625 14.71875 69.140625 
Q 20.953125 74.21875 31.78125 74.21875 
Q 42.671875 74.21875 48.875 69.140625 
Q 55.078125 64.0625 55.078125 55.328125 
Q 55.078125 49.078125 51.53125 44.71875 
Q 48 40.375 41.703125 38.8125 
Q 48.828125 37.15625 52.796875 32.3125 
Q 56.78125 27.484375 56.78125 20.515625 
Q 56.78125 9.90625 50.3125 4.234375 
Q 43.84375 -1.421875 31.78125 -1.421875 
Q 19.734375 -1.421875 13.25 4.234375 
Q 6.78125 9.90625 6.78125 20.515625 
Q 6.78125 27.484375 10.78125 32.3125 
Q 14.796875 37.15625 21.921875 38.8125 
z
M 18.3125 54.390625 
Q 18.3125 48.734375 21.84375 45.5625 
Q 25.390625 42.390625 31.78125 42.390625 
Q 38.140625 42.390625 41.71875 45.5625 
Q 45.3125 48.734375 45.3125 54.390625 
Q 45.3125 60.0625 41.71875 63.234375 
Q 38.140625 66.40625 31.78125 66.40625 
Q 25.390625 66.40625 21.84375 63.234375 
Q 18.3125 60.0625 18.3125 54.390625 
z
" id="DejaVuSans-38"/>
      </defs>
      <g transform="translate(147.631046 198.198438)scale(0.1 -0.1)">
       <use xlink:href="#DejaVuSans-30"/>
       <use x="63.623047" xlink:href="#DejaVuSans-2e"/>
       <use x="95.410156" xlink:href="#DejaVuSans-38"/>
      </g>
     </g>
    </g>
    <g id="xtick_5">
     <g id="line2d_5">
      <g>
       <use style="stroke:#000000;stroke-width:0.8;" x="190.643478" xlink:href="#mb02ce57dfd" y="183.6"/>
      </g>
     </g>
     <g id="text_5">
      <!-- 0.9 -->
      <defs>
       <path d="M 10.984375 1.515625 
L 10.984375 10.5 
Q 14.703125 8.734375 18.5 7.8125 
Q 22.3125 6.890625 25.984375 6.890625 
Q 35.75 6.890625 40.890625 13.453125 
Q 46.046875 20.015625 46.78125 33.40625 
Q 43.953125 29.203125 39.59375 26.953125 
Q 35.25 24.703125 29.984375 24.703125 
Q 19.046875 24.703125 12.671875 31.3125 
Q 6.296875 37.9375 6.296875 49.421875 
Q 6.296875 60.640625 12.9375 67.421875 
Q 19.578125 74.21875 30.609375 74.21875 
Q 43.265625 74.21875 49.921875 64.515625 
Q 56.59375 54.828125 56.59375 36.375 
Q 56.59375 19.140625 48.40625 8.859375 
Q 40.234375 -1.421875 26.421875 -1.421875 
Q 22.703125 -1.421875 18.890625 -0.6875 
Q 15.09375 0.046875 10.984375 1.515625 
z
M 30.609375 32.421875 
Q 37.25 32.421875 41.125 36.953125 
Q 45.015625 41.5 45.015625 49.421875 
Q 45.015625 57.28125 41.125 61.84375 
Q 37.25 66.40625 30.609375 66.40625 
Q 23.96875 66.40625 20.09375 61.84375 
Q 16.21875 57.28125 16.21875 49.421875 
Q 16.21875 41.5 20.09375 36.953125 
Q 23.96875 32.421875 30.609375 32.421875 
z
" id="DejaVuSans-39"/>
      </defs>
      <g transform="translate(182.691916 198.198438)scale(0.1 -0.1)">
       <use xlink:href="#DejaVuSans-30"/>
       <use x="63.623047" xlink:href="#DejaVuSans-2e"/>
       <use x="95.410156" xlink:href="#DejaVuSans-39"/>
      </g>
     </g>
    </g>
    <g id="xtick_6">
     <g id="line2d_6">
      <g>
       <use style="stroke:#000000;stroke-width:0.8;" x="225.704348" xlink:href="#mb02ce57dfd" y="183.6"/>
      </g>
     </g>
     <g id="text_6">
      <!-- 1.0 -->
      <defs>
       <path d="M 12.40625 8.296875 
L 28.515625 8.296875 
L 28.515625 63.921875 
L 10.984375 60.40625 
L 10.984375 69.390625 
L 28.421875 72.90625 
L 38.28125 72.90625 
L 38.28125 8.296875 
L 54.390625 8.296875 
L 54.390625 0 
L 12.40625 0 
z
" id="DejaVuSans-31"/>
      </defs>
      <g transform="translate(217.752785 198.198438)scale(0.1 -0.1)">
       <use xlink:href="#DejaVuSans-31"/>
       <use x="63.623047" xlink:href="#DejaVuSans-2e"/>
       <use x="95.410156" xlink:href="#DejaVuSans-30"/>
      </g>
     </g>
    </g>
    <g id="text_7">
     <!-- Recall -->
     <defs>
      <path d="M 44.390625 34.1875 
Q 47.5625 33.109375 50.5625 29.59375 
Q 53.5625 26.078125 56.59375 19.921875 
L 66.609375 0 
L 56 0 
L 46.6875 18.703125 
Q 43.0625 26.03125 39.671875 28.421875 
Q 36.28125 30.8125 30.421875 30.8125 
L 19.671875 30.8125 
L 19.671875 0 
L 9.8125 0 
L 9.8125 72.90625 
L 32.078125 72.90625 
Q 44.578125 72.90625 50.734375 67.671875 
Q 56.890625 62.453125 56.890625 51.90625 
Q 56.890625 45.015625 53.6875 40.46875 
Q 50.484375 35.9375 44.390625 34.1875 
z
M 19.671875 64.796875 
L 19.671875 38.921875 
L 32.078125 38.921875 
Q 39.203125 38.921875 42.84375 42.21875 
Q 46.484375 45.515625 46.484375 51.90625 
Q 46.484375 58.296875 42.84375 61.546875 
Q 39.203125 64.796875 32.078125 64.796875 
z
" id="DejaVuSans-52"/>
      <path d="M 56.203125 29.59375 
L 56.203125 25.203125 
L 14.890625 25.203125 
Q 15.484375 15.921875 20.484375 11.0625 
Q 25.484375 6.203125 34.421875 6.203125 
Q 39.59375 6.203125 44.453125 7.46875 
Q 49.3125 8.734375 54.109375 11.28125 
L 54.109375 2.78125 
Q 49.265625 0.734375 44.1875 -0.34375 
Q 39.109375 -1.421875 33.890625 -1.421875 
Q 20.796875 -1.421875 13.15625 6.1875 
Q 5.515625 13.8125 5.515625 26.8125 
Q 5.515625 40.234375 12.765625 48.109375 
Q 20.015625 56 32.328125 56 
Q 43.359375 56 49.78125 48.890625 
Q 56.203125 41.796875 56.203125 29.59375 
z
M 47.21875 32.234375 
Q 47.125 39.59375 43.09375 43.984375 
Q 39.0625 48.390625 32.421875 48.390625 
Q 24.90625 48.390625 20.390625 44.140625 
Q 15.875 39.890625 15.1875 32.171875 
z
" id="DejaVuSans-65"/>
      <path d="M 48.78125 52.59375 
L 48.78125 44.1875 
Q 44.96875 46.296875 41.140625 47.34375 
Q 37.3125 48.390625 33.40625 48.390625 
Q 24.65625 48.390625 19.8125 42.84375 
Q 14.984375 37.3125 14.984375 27.296875 
Q 14.984375 17.28125 19.8125 11.734375 
Q 24.65625 6.203125 33.40625 6.203125 
Q 37.3125 6.203125 41.140625 7.25 
Q 44.96875 8.296875 48.78125 10.40625 
L 48.78125 2.09375 
Q 45.015625 0.34375 40.984375 -0.53125 
Q 36.96875 -1.421875 32.421875 -1.421875 
Q 20.0625 -1.421875 12.78125 6.34375 
Q 5.515625 14.109375 5.515625 27.296875 
Q 5.515625 40.671875 12.859375 48.328125 
Q 20.21875 56 33.015625 56 
Q 37.15625 56 41.109375 55.140625 
Q 45.0625 54.296875 48.78125 52.59375 
z
" id="DejaVuSans-63"/>
      <path d="M 34.28125 27.484375 
Q 23.390625 27.484375 19.1875 25 
Q 14.984375 22.515625 14.984375 16.5 
Q 14.984375 11.71875 18.140625 8.90625 
Q 21.296875 6.109375 26.703125 6.109375 
Q 34.1875 6.109375 38.703125 11.40625 
Q 43.21875 16.703125 43.21875 25.484375 
L 43.21875 27.484375 
z
M 52.203125 31.203125 
L 52.203125 0 
L 43.21875 0 
L 43.21875 8.296875 
Q 40.140625 3.328125 35.546875 0.953125 
Q 30.953125 -1.421875 24.3125 -1.421875 
Q 15.921875 -1.421875 10.953125 3.296875 
Q 6 8.015625 6 15.921875 
Q 6 25.140625 12.171875 29.828125 
Q 18.359375 34.515625 30.609375 34.515625 
L 43.21875 34.515625 
L 43.21875 35.40625 
Q 43.21875 41.609375 39.140625 45 
Q 35.0625 48.390625 27.6875 48.390625 
Q 23 48.390625 18.546875 47.265625 
Q 14.109375 46.140625 10.015625 43.890625 
L 10.015625 52.203125 
Q 14.9375 54.109375 19.578125 55.046875 
Q 24.21875 56 28.609375 56 
Q 40.484375 56 46.34375 49.84375 
Q 52.203125 43.703125 52.203125 31.203125 
z
" id="DejaVuSans-61"/>
      <path d="M 9.421875 75.984375 
L 18.40625 75.984375 
L 18.40625 0 
L 9.421875 0 
z
" id="DejaVuSans-6c"/>
     </defs>
     <g transform="translate(122.913111 211.876563)scale(0.1 -0.1)">
      <use xlink:href="#DejaVuSans-52"/>
      <use x="69.419922" xlink:href="#DejaVuSans-65"/>
      <use x="130.943359" xlink:href="#DejaVuSans-63"/>
      <use x="185.923828" xlink:href="#DejaVuSans-61"/>
      <use x="247.203125" xlink:href="#DejaVuSans-6c"/>
      <use x="274.986328" xlink:href="#DejaVuSans-6c"/>
     </g>
    </g>
   </g>
   <g id="matplotlib.axis_2">
    <g id="ytick_1">
     <g id="line2d_7">
      <defs>
       <path d="M 0 0 
L -3.5 0 
" id="me67c69bbf8" style="stroke:#000000;stroke-width:0.8;"/>
      </defs>
      <g>
       <use style="stroke:#000000;stroke-width:0.8;" x="50.4" xlink:href="#me67c69bbf8" y="183.6"/>
      </g>
     </g>
     <g id="text_8">
      <!-- 0.5 -->
      <g transform="translate(27.496875 187.399219)scale(0.1 -0.1)">
       <use xlink:href="#DejaVuSans-30"/>
       <use x="63.623047" xlink:href="#DejaVuSans-2e"/>
       <use x="95.410156" xlink:href="#DejaVuSans-35"/>
      </g>
     </g>
    </g>
    <g id="ytick_2">
     <g id="line2d_8">
      <g>
       <use style="stroke:#000000;stroke-width:0.8;" x="50.4" xlink:href="#me67c69bbf8" y="151.2"/>
      </g>
     </g>
     <g id="text_9">
      <!-- 0.6 -->
      <g transform="translate(27.496875 154.999219)scale(0.1 -0.1)">
       <use xlink:href="#DejaVuSans-30"/>
       <use x="63.623047" xlink:href="#DejaVuSans-2e"/>
       <use x="95.410156" xlink:href="#DejaVuSans-36"/>
      </g>
     </g>
    </g>
    <g id="ytick_3">
     <g id="line2d_9">
      <g>
       <use style="stroke:#000000;stroke-width:0.8;" x="50.4" xlink:href="#me67c69bbf8" y="118.8"/>
      </g>
     </g>
     <g id="text_10">
      <!-- 0.7 -->
      <g transform="translate(27.496875 122.599219)scale(0.1 -0.1)">
       <use xlink:href="#DejaVuSans-30"/>
       <use x="63.623047" xlink:href="#DejaVuSans-2e"/>
       <use x="95.410156" xlink:href="#DejaVuSans-37"/>
      </g>
     </g>
    </g>
    <g id="ytick_4">
     <g id="line2d_10">
      <g>
       <use style="stroke:#000000;stroke-width:0.8;" x="50.4" xlink:href="#me67c69bbf8" y="86.4"/>
      </g>
     </g>
     <g id="text_11">
      <!-- 0.8 -->
      <g transform="translate(27.496875 90.199219)scale(0.1 -0.1)">
       <use xlink:href="#DejaVuSans-30"/>
       <use x="63.623047" xlink:href="#DejaVuSans-2e"/>
       <use x="95.410156" xlink:href="#DejaVuSans-38"/>
      </g>
     </g>
    </g>
    <g id="ytick_5">
     <g id="line2d_11">
      <g>
       <use style="stroke:#000000;stroke-width:0.8;" x="50.4" xlink:href="#me67c69bbf8" y="54"/>
      </g>
     </g>
     <g id="text_12">
      <!-- 0.9 -->
      <g transform="translate(27.496875 57.799219)scale(0.1 -0.1)">
       <use xlink:href="#DejaVuSans-30"/>
       <use x="63.623047" xlink:href="#DejaVuSans-2e"/>
       <use x="95.410156" xlink:href="#DejaVuSans-39"/>
      </g>
     </g>
    </g>
    <g id="ytick_6">
     <g id="line2d_12">
      <g>
       <use style="stroke:#000000;stroke-width:0.8;" x="50.4" xlink:href="#me67c69bbf8" y="21.6"/>
      </g>
     </g>
     <g id="text_13">
      <!-- 1.0 -->
      <g transform="translate(27.496875 25.399219)scale(0.1 -0.1)">
       <use xlink:href="#DejaVuSans-31"/>
       <use x="63.623047" xlink:href="#DejaVuSans-2e"/>
       <use x="95.410156" xlink:href="#DejaVuSans-30"/>
      </g>
     </g>
    </g>
    <g id="text_14">
     <!-- Precision -->
     <defs>
      <path d="M 19.671875 64.796875 
L 19.671875 37.40625 
L 32.078125 37.40625 
Q 38.96875 37.40625 42.71875 40.96875 
Q 46.484375 44.53125 46.484375 51.125 
Q 46.484375 57.671875 42.71875 61.234375 
Q 38.96875 64.796875 32.078125 64.796875 
z
M 9.8125 72.90625 
L 32.078125 72.90625 
Q 44.34375 72.90625 50.609375 67.359375 
Q 56.890625 61.8125 56.890625 51.125 
Q 56.890625 40.328125 50.609375 34.8125 
Q 44.34375 29.296875 32.078125 29.296875 
L 19.671875 29.296875 
L 19.671875 0 
L 9.8125 0 
z
" id="DejaVuSans-50"/>
      <path d="M 41.109375 46.296875 
Q 39.59375 47.171875 37.8125 47.578125 
Q 36.03125 48 33.890625 48 
Q 26.265625 48 22.1875 43.046875 
Q 18.109375 38.09375 18.109375 28.8125 
L 18.109375 0 
L 9.078125 0 
L 9.078125 54.6875 
L 18.109375 54.6875 
L 18.109375 46.1875 
Q 20.953125 51.171875 25.484375 53.578125 
Q 30.03125 56 36.53125 56 
Q 37.453125 56 38.578125 55.875 
Q 39.703125 55.765625 41.0625 55.515625 
z
" id="DejaVuSans-72"/>
      <path d="M 9.421875 54.6875 
L 18.40625 54.6875 
L 18.40625 0 
L 9.421875 0 
z
M 9.421875 75.984375 
L 18.40625 75.984375 
L 18.40625 64.59375 
L 9.421875 64.59375 
z
" id="DejaVuSans-69"/>
      <path d="M 44.28125 53.078125 
L 44.28125 44.578125 
Q 40.484375 46.53125 36.375 47.5 
Q 32.28125 48.484375 27.875 48.484375 
Q 21.1875 48.484375 17.84375 46.4375 
Q 14.5 44.390625 14.5 40.28125 
Q 14.5 37.15625 16.890625 35.375 
Q 19.28125 33.59375 26.515625 31.984375 
L 29.59375 31.296875 
Q 39.15625 29.25 43.1875 25.515625 
Q 47.21875 21.78125 47.21875 15.09375 
Q 47.21875 7.46875 41.1875 3.015625 
Q 35.15625 -1.421875 24.609375 -1.421875 
Q 20.21875 -1.421875 15.453125 -0.5625 
Q 10.6875 0.296875 5.421875 2 
L 5.421875 11.28125 
Q 10.40625 8.6875 15.234375 7.390625 
Q 20.0625 6.109375 24.8125 6.109375 
Q 31.15625 6.109375 34.5625 8.28125 
Q 37.984375 10.453125 37.984375 14.40625 
Q 37.984375 18.0625 35.515625 20.015625 
Q 33.0625 21.96875 24.703125 23.78125 
L 21.578125 24.515625 
Q 13.234375 26.265625 9.515625 29.90625 
Q 5.8125 33.546875 5.8125 39.890625 
Q 5.8125 47.609375 11.28125 51.796875 
Q 16.75 56 26.8125 56 
Q 31.78125 56 36.171875 55.265625 
Q 40.578125 54.546875 44.28125 53.078125 
z
" id="DejaVuSans-73"/>
      <path d="M 30.609375 48.390625 
Q 23.390625 48.390625 19.1875 42.75 
Q 14.984375 37.109375 14.984375 27.296875 
Q 14.984375 17.484375 19.15625 11.84375 
Q 23.34375 6.203125 30.609375 6.203125 
Q 37.796875 6.203125 41.984375 11.859375 
Q 46.1875 17.53125 46.1875 27.296875 
Q 46.1875 37.015625 41.984375 42.703125 
Q 37.796875 48.390625 30.609375 48.390625 
z
M 30.609375 56 
Q 42.328125 56 49.015625 48.375 
Q 55.71875 40.765625 55.71875 27.296875 
Q 55.71875 13.875 49.015625 6.21875 
Q 42.328125 -1.421875 30.609375 -1.421875 
Q 18.84375 -1.421875 12.171875 6.21875 
Q 5.515625 13.875 5.515625 27.296875 
Q 5.515625 40.765625 12.171875 48.375 
Q 18.84375 56 30.609375 56 
z
" id="DejaVuSans-6f"/>
      <path d="M 54.890625 33.015625 
L 54.890625 0 
L 45.90625 0 
L 45.90625 32.71875 
Q 45.90625 40.484375 42.875 44.328125 
Q 39.84375 48.1875 33.796875 48.1875 
Q 26.515625 48.1875 22.3125 43.546875 
Q 18.109375 38.921875 18.109375 30.90625 
L 18.109375 0 
L 9.078125 0 
L 9.078125 54.6875 
L 18.109375 54.6875 
L 18.109375 46.1875 
Q 21.34375 51.125 25.703125 53.5625 
Q 30.078125 56 35.796875 56 
Q 45.21875 56 50.046875 50.171875 
Q 54.890625 44.34375 54.890625 33.015625 
z
" id="DejaVuSans-6e"/>
     </defs>
     <g transform="translate(21.417188 125.104687)rotate(-90)scale(0.1 -0.1)">
      <use xlink:href="#DejaVuSans-50"/>
      <use x="60.287109" xlink:href="#DejaVuSans-72"/>
      <use x="101.369141" xlink:href="#DejaVuSans-65"/>
      <use x="162.892578" xlink:href="#DejaVuSans-63"/>
      <use x="217.873047" xlink:href="#DejaVuSans-69"/>
      <use x="245.65625" xlink:href="#DejaVuSans-73"/>
      <use x="297.755859" xlink:href="#DejaVuSans-69"/>
      <use x="325.539062" xlink:href="#DejaVuSans-6f"/>
      <use x="386.720703" xlink:href="#DejaVuSans-6e"/>
     </g>
    </g>
   </g>
   <g id="patch_3">
    <path d="M 50.4 183.6 
L 50.4 21.6 
" style="fill:none;stroke:#000000;stroke-linecap:square;stroke-linejoin:miter;stroke-width:0.8;"/>
   </g>
   <g id="patch_4">
    <path d="M 225.704348 183.6 
L 225.704348 21.6 
" style="fill:none;stroke:#000000;stroke-linecap:square;stroke-linejoin:miter;stroke-width:0.8;"/>
   </g>
   <g id="patch_5">
    <path d="M 50.4 183.6 
L 225.704348 183.6 
" style="fill:none;stroke:#000000;stroke-linecap:square;stroke-linejoin:miter;stroke-width:0.8;"/>
   </g>
   <g id="patch_6">
    <path d="M 50.4 21.6 
L 225.704348 21.6 
" style="fill:none;stroke:#000000;stroke-linecap:square;stroke-linejoin:miter;stroke-width:0.8;"/>
   </g>
  </g>
  <g id="axes_2">
   <g id="patch_7">
    <path d="M 278.295652 183.6 
L 453.6 183.6 
L 453.6 21.6 
L 278.295652 21.6 
z
" style="fill:#ffffff;"/>
   </g>
   <g id="PolyCollection_1">
    <defs>
     <path d="M 278.295652 -172.8 
L 278.295652 -172.8 
L 295.886275 -168.48 
L 306.176129 -164.16 
L 313.476897 -157.41 
L 319.139812 -159.03 
L 323.766751 -154.17 
L 327.678772 -156.6 
L 331.067519 -153.09 
L 334.056606 -149.58 
L 336.730435 -140.697 
L 354.321057 -138.51 
L 364.610912 -131.76 
L 371.911679 -132.57 
L 377.574595 -126.09 
L 382.201534 -122.85 
L 386.113555 -123.93 
L 389.502302 -119.34 
L 392.491388 -119.448 
L 395.165217 -111.834 
L 412.75584 -108.81 
L 423.045694 -99.36 
L 430.346462 -95.58 
L 436.009378 -85.59 
L 440.636317 -78.03 
L 444.548338 -70.74 
L 447.937084 -65.07 
L 450.926171 -58.05 
L 453.6 -55.62 
L 453.6 -84.78 
L 453.6 -84.78 
L 450.926171 -85.59 
L 447.937084 -91.53 
L 444.548338 -95.58 
L 440.636317 -98.01 
L 436.009378 -104.49 
L 430.346462 -113.94 
L 423.045694 -116.64 
L 412.75584 -125.55 
L 395.165217 -126.846 
L 392.491388 -134.352 
L 389.502302 -134.46 
L 386.113555 -136.35 
L 382.201534 -136.35 
L 377.574595 -139.59 
L 371.911679 -144.99 
L 364.610912 -144.72 
L 354.321057 -149.85 
L 336.730435 -153.063 
L 334.056606 -160.38 
L 331.067519 -162.27 
L 327.678772 -164.16 
L 323.766751 -161.19 
L 319.139812 -164.97 
L 313.476897 -163.35 
L 306.176129 -170.64 
L 295.886275 -173.88 
L 278.295652 -172.8 
z
" id="mfded7361fc" style="stroke:#ffa500;stroke-opacity:0.3;"/>
    </defs>
    <g clip-path="url(#p29c4f6ec99)">
     <use style="fill:#ffa500;fill-opacity:0.3;stroke:#ffa500;stroke-opacity:0.3;" x="0" xlink:href="#mfded7361fc" y="216"/>
    </g>
   </g>
   <g id="PolyCollection_2">
    <defs>
     <path d="M 278.295652 -174.96 
L 278.295652 -174.96 
L 295.886275 -170.37 
L 306.176129 -162.675 
L 313.476897 -161.541 
L 319.139812 -164.457 
L 323.766751 -163.026 
L 327.678772 -160.218 
L 331.067519 -155.52 
L 334.056606 -151.065 
L 336.730435 -149.526 
L 354.321057 -148.554 
L 364.610912 -147.474 
L 371.911679 -147.771 
L 377.574595 -142.668 
L 382.201534 -139.05 
L 386.113555 -133.38 
L 389.502302 -129.87 
L 392.491388 -128.79 
L 395.165217 -125.01 
L 412.75584 -121.5 
L 423.045694 -114.75 
L 430.346462 -106.542 
L 436.009378 -102.6 
L 440.636317 -94.23 
L 444.548338 -85.239 
L 447.937084 -83.43 
L 450.926171 -75.762 
L 453.6 -69.93 
L 453.6 -95.31 
L 453.6 -95.31 
L 450.926171 -100.278 
L 447.937084 -107.73 
L 444.548338 -110.241 
L 440.636317 -115.29 
L 436.009378 -120.96 
L 430.346462 -124.578 
L 423.045694 -131.49 
L 412.75584 -137.7 
L 395.165217 -138.51 
L 392.491388 -141.21 
L 389.502302 -141.21 
L 386.113555 -144.18 
L 382.201534 -149.31 
L 377.574595 -152.172 
L 371.911679 -155.709 
L 364.610912 -154.926 
L 354.321057 -156.006 
L 336.730435 -157.194 
L 334.056606 -158.895 
L 331.067519 -163.08 
L 327.678772 -167.022 
L 323.766751 -170.694 
L 319.139812 -170.883 
L 313.476897 -167.859 
L 306.176129 -168.885 
L 295.886275 -176.31 
L 278.295652 -174.96 
z
" id="m7d3ecc27a6" style="stroke:#b22222;stroke-opacity:0.3;"/>
    </defs>
    <g clip-path="url(#p29c4f6ec99)">
     <use style="fill:#b22222;fill-opacity:0.3;stroke:#b22222;stroke-opacity:0.3;" x="0" xlink:href="#m7d3ecc27a6" y="216"/>
    </g>
   </g>
   <g id="PolyCollection_3">
    <defs>
     <path d="M 278.295652 -181.98 
L 278.295652 -181.98 
L 295.886275 -173.88 
L 306.176129 -169.29 
L 313.476897 -166.05 
L 319.139812 -167.805 
L 323.766751 -163.485 
L 327.678772 -165.429 
L 331.067519 -162.945 
L 334.056606 -158.355 
L 336.730435 -150.66 
L 354.321057 -152.01 
L 364.610912 -148.77 
L 371.911679 -145.26 
L 377.574595 -146.07 
L 382.201534 -145.26 
L 386.113555 -141.21 
L 389.502302 -140.94 
L 392.491388 -137.7 
L 395.165217 -133.677 
L 412.75584 -129.87 
L 423.045694 -127.98 
L 430.346462 -120.42 
L 436.009378 -113.13 
L 440.636317 -104.679 
L 444.548338 -100.17 
L 447.937084 -92.61 
L 450.926171 -87.21 
L 453.6 -85.59 
L 453.6 -109.89 
L 453.6 -109.89 
L 450.926171 -111.51 
L 447.937084 -115.83 
L 444.548338 -122.31 
L 440.636317 -124.281 
L 436.009378 -133.11 
L 430.346462 -138.78 
L 423.045694 -145.26 
L 412.75584 -146.61 
L 395.165217 -150.363 
L 392.491388 -153.9 
L 389.502302 -156.06 
L 386.113555 -156.87 
L 382.201534 -159.3 
L 377.574595 -159.57 
L 371.911679 -158.22 
L 364.610912 -161.19 
L 354.321057 -164.43 
L 336.730435 -162.54 
L 334.056606 -168.885 
L 331.067519 -172.935 
L 327.678772 -174.771 
L 323.766751 -171.315 
L 319.139812 -176.715 
L 313.476897 -175.23 
L 306.176129 -176.31 
L 295.886275 -181.44 
L 278.295652 -181.98 
z
" id="m4d10cfa70e" style="stroke:#6495ed;stroke-opacity:0.3;"/>
    </defs>
    <g clip-path="url(#p29c4f6ec99)">
     <use style="fill:#6495ed;fill-opacity:0.3;stroke:#6495ed;stroke-opacity:0.3;" x="0" xlink:href="#m4d10cfa70e" y="216"/>
    </g>
   </g>
   <g id="PolyCollection_4">
    <defs>
     <path d="M 278.295652 -186.3 
L 278.295652 -186.3 
L 295.886275 -183.6 
L 306.176129 -183.384 
L 313.476897 -183.492 
L 319.139812 -183.06 
L 323.766751 -183.06 
L 327.678772 -182.52 
L 331.067519 -182.034 
L 334.056606 -181.818 
L 336.730435 -176.04 
L 354.321057 -174.69 
L 364.610912 -173.691 
L 371.911679 -171.639 
L 377.574595 -168.102 
L 382.201534 -169.101 
L 386.113555 -164.727 
L 389.502302 -161.325 
L 392.491388 -158.814 
L 395.165217 -156.33 
L 412.75584 -151.74 
L 423.045694 -153.441 
L 430.346462 -147.447 
L 436.009378 -143.343 
L 440.636317 -142.02 
L 444.548338 -141.21 
L 447.937084 -132.84 
L 450.926171 -128.088 
L 453.6 -120.96 
L 453.6 -140.4 
L 453.6 -140.4 
L 450.926171 -147.312 
L 447.937084 -151.2 
L 444.548338 -157.95 
L 440.636317 -158.22 
L 436.009378 -159.057 
L 430.346462 -161.433 
L 423.045694 -166.239 
L 412.75584 -163.62 
L 395.165217 -167.67 
L 392.491388 -169.506 
L 389.502302 -171.315 
L 386.113555 -174.393 
L 382.201534 -177.579 
L 377.574595 -176.418 
L 371.911679 -179.361 
L 364.610912 -180.549 
L 354.321057 -181.71 
L 336.730435 -181.44 
L 334.056606 -187.218 
L 331.067519 -187.434 
L 327.678772 -187.92 
L 323.766751 -188.46 
L 319.139812 -188.46 
L 313.476897 -188.892 
L 306.176129 -188.784 
L 295.886275 -189 
L 278.295652 -186.3 
z
" id="me954bc29f9" style="stroke:#228b22;stroke-opacity:0.3;"/>
    </defs>
    <g clip-path="url(#p29c4f6ec99)">
     <use style="fill:#228b22;fill-opacity:0.3;stroke:#228b22;stroke-opacity:0.3;" x="0" xlink:href="#me954bc29f9" y="216"/>
    </g>
   </g>
   <g id="matplotlib.axis_3">
    <g id="xtick_7">
     <g id="line2d_13">
      <g>
       <use style="stroke:#000000;stroke-width:0.8;" x="278.295652" xlink:href="#mb02ce57dfd" y="183.6"/>
      </g>
     </g>
     <g id="text_15">
      <!-- $\mathdefault{10^{-1}}$ -->
      <defs>
       <path d="M 10.59375 35.5 
L 73.1875 35.5 
L 73.1875 27.203125 
L 10.59375 27.203125 
z
" id="DejaVuSans-2212"/>
      </defs>
      <g transform="translate(266.545652 198.198438)scale(0.1 -0.1)">
       <use transform="translate(0 0.684375)" xlink:href="#DejaVuSans-31"/>
       <use transform="translate(63.623047 0.684375)" xlink:href="#DejaVuSans-30"/>
       <use transform="translate(128.203125 38.965625)scale(0.7)" xlink:href="#DejaVuSans-2212"/>
       <use transform="translate(186.855469 38.965625)scale(0.7)" xlink:href="#DejaVuSans-31"/>
      </g>
     </g>
    </g>
    <g id="xtick_8">
     <g id="line2d_14">
      <g>
       <use style="stroke:#000000;stroke-width:0.8;" x="336.730435" xlink:href="#mb02ce57dfd" y="183.6"/>
      </g>
     </g>
     <g id="text_16">
      <!-- $\mathdefault{10^{0}}$ -->
      <g transform="translate(327.930435 198.198438)scale(0.1 -0.1)">
       <use transform="translate(0 0.765625)" xlink:href="#DejaVuSans-31"/>
       <use transform="translate(63.623047 0.765625)" xlink:href="#DejaVuSans-30"/>
       <use transform="translate(128.203125 39.046875)scale(0.7)" xlink:href="#DejaVuSans-30"/>
      </g>
     </g>
    </g>
    <g id="xtick_9">
     <g id="line2d_15">
      <g>
       <use style="stroke:#000000;stroke-width:0.8;" x="395.165217" xlink:href="#mb02ce57dfd" y="183.6"/>
      </g>
     </g>
     <g id="text_17">
      <!-- $\mathdefault{10^{1}}$ -->
      <g transform="translate(386.365217 198.198438)scale(0.1 -0.1)">
       <use transform="translate(0 0.684375)" xlink:href="#DejaVuSans-31"/>
       <use transform="translate(63.623047 0.684375)" xlink:href="#DejaVuSans-30"/>
       <use transform="translate(128.203125 38.965625)scale(0.7)" xlink:href="#DejaVuSans-31"/>
      </g>
     </g>
    </g>
    <g id="xtick_10">
     <g id="line2d_16">
      <g>
       <use style="stroke:#000000;stroke-width:0.8;" x="453.6" xlink:href="#mb02ce57dfd" y="183.6"/>
      </g>
     </g>
     <g id="text_18">
      <!-- $\mathdefault{10^{2}}$ -->
      <defs>
       <path d="M 19.1875 8.296875 
L 53.609375 8.296875 
L 53.609375 0 
L 7.328125 0 
L 7.328125 8.296875 
Q 12.9375 14.109375 22.625 23.890625 
Q 32.328125 33.6875 34.8125 36.53125 
Q 39.546875 41.84375 41.421875 45.53125 
Q 43.3125 49.21875 43.3125 52.78125 
Q 43.3125 58.59375 39.234375 62.25 
Q 35.15625 65.921875 28.609375 65.921875 
Q 23.96875 65.921875 18.8125 64.3125 
Q 13.671875 62.703125 7.8125 59.421875 
L 7.8125 69.390625 
Q 13.765625 71.78125 18.9375 73 
Q 24.125 74.21875 28.421875 74.21875 
Q 39.75 74.21875 46.484375 68.546875 
Q 53.21875 62.890625 53.21875 53.421875 
Q 53.21875 48.921875 51.53125 44.890625 
Q 49.859375 40.875 45.40625 35.40625 
Q 44.1875 33.984375 37.640625 27.21875 
Q 31.109375 20.453125 19.1875 8.296875 
z
" id="DejaVuSans-32"/>
      </defs>
      <g transform="translate(444.8 198.198438)scale(0.1 -0.1)">
       <use transform="translate(0 0.765625)" xlink:href="#DejaVuSans-31"/>
       <use transform="translate(63.623047 0.765625)" xlink:href="#DejaVuSans-30"/>
       <use transform="translate(128.203125 39.046875)scale(0.7)" xlink:href="#DejaVuSans-32"/>
      </g>
     </g>
    </g>
    <g id="xtick_11">
     <g id="line2d_17">
      <defs>
       <path d="M 0 0 
L 0 2 
" id="mc16fc37314" style="stroke:#000000;stroke-width:0.6;"/>
      </defs>
      <g>
       <use style="stroke:#000000;stroke-width:0.6;" x="295.886275" xlink:href="#mc16fc37314" y="183.6"/>
      </g>
     </g>
    </g>
    <g id="xtick_12">
     <g id="line2d_18">
      <g>
       <use style="stroke:#000000;stroke-width:0.6;" x="306.176129" xlink:href="#mc16fc37314" y="183.6"/>
      </g>
     </g>
    </g>
    <g id="xtick_13">
     <g id="line2d_19">
      <g>
       <use style="stroke:#000000;stroke-width:0.6;" x="313.476897" xlink:href="#mc16fc37314" y="183.6"/>
      </g>
     </g>
    </g>
    <g id="xtick_14">
     <g id="line2d_20">
      <g>
       <use style="stroke:#000000;stroke-width:0.6;" x="319.139812" xlink:href="#mc16fc37314" y="183.6"/>
      </g>
     </g>
    </g>
    <g id="xtick_15">
     <g id="line2d_21">
      <g>
       <use style="stroke:#000000;stroke-width:0.6;" x="323.766751" xlink:href="#mc16fc37314" y="183.6"/>
      </g>
     </g>
    </g>
    <g id="xtick_16">
     <g id="line2d_22">
      <g>
       <use style="stroke:#000000;stroke-width:0.6;" x="327.678772" xlink:href="#mc16fc37314" y="183.6"/>
      </g>
     </g>
    </g>
    <g id="xtick_17">
     <g id="line2d_23">
      <g>
       <use style="stroke:#000000;stroke-width:0.6;" x="331.067519" xlink:href="#mc16fc37314" y="183.6"/>
      </g>
     </g>
    </g>
    <g id="xtick_18">
     <g id="line2d_24">
      <g>
       <use style="stroke:#000000;stroke-width:0.6;" x="334.056606" xlink:href="#mc16fc37314" y="183.6"/>
      </g>
     </g>
    </g>
    <g id="xtick_19">
     <g id="line2d_25">
      <g>
       <use style="stroke:#000000;stroke-width:0.6;" x="354.321057" xlink:href="#mc16fc37314" y="183.6"/>
      </g>
     </g>
    </g>
    <g id="xtick_20">
     <g id="line2d_26">
      <g>
       <use style="stroke:#000000;stroke-width:0.6;" x="364.610912" xlink:href="#mc16fc37314" y="183.6"/>
      </g>
     </g>
    </g>
    <g id="xtick_21">
     <g id="line2d_27">
      <g>
       <use style="stroke:#000000;stroke-width:0.6;" x="371.911679" xlink:href="#mc16fc37314" y="183.6"/>
      </g>
     </g>
    </g>
    <g id="xtick_22">
     <g id="line2d_28">
      <g>
       <use style="stroke:#000000;stroke-width:0.6;" x="377.574595" xlink:href="#mc16fc37314" y="183.6"/>
      </g>
     </g>
    </g>
    <g id="xtick_23">
     <g id="line2d_29">
      <g>
       <use style="stroke:#000000;stroke-width:0.6;" x="382.201534" xlink:href="#mc16fc37314" y="183.6"/>
      </g>
     </g>
    </g>
    <g id="xtick_24">
     <g id="line2d_30">
      <g>
       <use style="stroke:#000000;stroke-width:0.6;" x="386.113555" xlink:href="#mc16fc37314" y="183.6"/>
      </g>
     </g>
    </g>
    <g id="xtick_25">
     <g id="line2d_31">
      <g>
       <use style="stroke:#000000;stroke-width:0.6;" x="389.502302" xlink:href="#mc16fc37314" y="183.6"/>
      </g>
     </g>
    </g>
    <g id="xtick_26">
     <g id="line2d_32">
      <g>
       <use style="stroke:#000000;stroke-width:0.6;" x="392.491388" xlink:href="#mc16fc37314" y="183.6"/>
      </g>
     </g>
    </g>
    <g id="xtick_27">
     <g id="line2d_33">
      <g>
       <use style="stroke:#000000;stroke-width:0.6;" x="412.75584" xlink:href="#mc16fc37314" y="183.6"/>
      </g>
     </g>
    </g>
    <g id="xtick_28">
     <g id="line2d_34">
      <g>
       <use style="stroke:#000000;stroke-width:0.6;" x="423.045694" xlink:href="#mc16fc37314" y="183.6"/>
      </g>
     </g>
    </g>
    <g id="xtick_29">
     <g id="line2d_35">
      <g>
       <use style="stroke:#000000;stroke-width:0.6;" x="430.346462" xlink:href="#mc16fc37314" y="183.6"/>
      </g>
     </g>
    </g>
    <g id="xtick_30">
     <g id="line2d_36">
      <g>
       <use style="stroke:#000000;stroke-width:0.6;" x="436.009378" xlink:href="#mc16fc37314" y="183.6"/>
      </g>
     </g>
    </g>
    <g id="xtick_31">
     <g id="line2d_37">
      <g>
       <use style="stroke:#000000;stroke-width:0.6;" x="440.636317" xlink:href="#mc16fc37314" y="183.6"/>
      </g>
     </g>
    </g>
    <g id="xtick_32">
     <g id="line2d_38">
      <g>
       <use style="stroke:#000000;stroke-width:0.6;" x="444.548338" xlink:href="#mc16fc37314" y="183.6"/>
      </g>
     </g>
    </g>
    <g id="xtick_33">
     <g id="line2d_39">
      <g>
       <use style="stroke:#000000;stroke-width:0.6;" x="447.937084" xlink:href="#mc16fc37314" y="183.6"/>
      </g>
     </g>
    </g>
    <g id="xtick_34">
     <g id="line2d_40">
      <g>
       <use style="stroke:#000000;stroke-width:0.6;" x="450.926171" xlink:href="#mc16fc37314" y="183.6"/>
      </g>
     </g>
    </g>
    <g id="text_19">
     <!-- Percentage fo Samples -->
     <defs>
      <path d="M 18.3125 70.21875 
L 18.3125 54.6875 
L 36.8125 54.6875 
L 36.8125 47.703125 
L 18.3125 47.703125 
L 18.3125 18.015625 
Q 18.3125 11.328125 20.140625 9.421875 
Q 21.96875 7.515625 27.59375 7.515625 
L 36.8125 7.515625 
L 36.8125 0 
L 27.59375 0 
Q 17.1875 0 13.234375 3.875 
Q 9.28125 7.765625 9.28125 18.015625 
L 9.28125 47.703125 
L 2.6875 47.703125 
L 2.6875 54.6875 
L 9.28125 54.6875 
L 9.28125 70.21875 
z
" id="DejaVuSans-74"/>
      <path d="M 45.40625 27.984375 
Q 45.40625 37.75 41.375 43.109375 
Q 37.359375 48.484375 30.078125 48.484375 
Q 22.859375 48.484375 18.828125 43.109375 
Q 14.796875 37.75 14.796875 27.984375 
Q 14.796875 18.265625 18.828125 12.890625 
Q 22.859375 7.515625 30.078125 7.515625 
Q 37.359375 7.515625 41.375 12.890625 
Q 45.40625 18.265625 45.40625 27.984375 
z
M 54.390625 6.78125 
Q 54.390625 -7.171875 48.1875 -13.984375 
Q 42 -20.796875 29.203125 -20.796875 
Q 24.46875 -20.796875 20.265625 -20.09375 
Q 16.0625 -19.390625 12.109375 -17.921875 
L 12.109375 -9.1875 
Q 16.0625 -11.328125 19.921875 -12.34375 
Q 23.78125 -13.375 27.78125 -13.375 
Q 36.625 -13.375 41.015625 -8.765625 
Q 45.40625 -4.15625 45.40625 5.171875 
L 45.40625 9.625 
Q 42.625 4.78125 38.28125 2.390625 
Q 33.9375 0 27.875 0 
Q 17.828125 0 11.671875 7.65625 
Q 5.515625 15.328125 5.515625 27.984375 
Q 5.515625 40.671875 11.671875 48.328125 
Q 17.828125 56 27.875 56 
Q 33.9375 56 38.28125 53.609375 
Q 42.625 51.21875 45.40625 46.390625 
L 45.40625 54.6875 
L 54.390625 54.6875 
z
" id="DejaVuSans-67"/>
      <path id="DejaVuSans-20"/>
      <path d="M 37.109375 75.984375 
L 37.109375 68.5 
L 28.515625 68.5 
Q 23.6875 68.5 21.796875 66.546875 
Q 19.921875 64.59375 19.921875 59.515625 
L 19.921875 54.6875 
L 34.71875 54.6875 
L 34.71875 47.703125 
L 19.921875 47.703125 
L 19.921875 0 
L 10.890625 0 
L 10.890625 47.703125 
L 2.296875 47.703125 
L 2.296875 54.6875 
L 10.890625 54.6875 
L 10.890625 58.5 
Q 10.890625 67.625 15.140625 71.796875 
Q 19.390625 75.984375 28.609375 75.984375 
z
" id="DejaVuSans-66"/>
      <path d="M 53.515625 70.515625 
L 53.515625 60.890625 
Q 47.90625 63.578125 42.921875 64.890625 
Q 37.9375 66.21875 33.296875 66.21875 
Q 25.25 66.21875 20.875 63.09375 
Q 16.5 59.96875 16.5 54.203125 
Q 16.5 49.359375 19.40625 46.890625 
Q 22.3125 44.4375 30.421875 42.921875 
L 36.375 41.703125 
Q 47.40625 39.59375 52.65625 34.296875 
Q 57.90625 29 57.90625 20.125 
Q 57.90625 9.515625 50.796875 4.046875 
Q 43.703125 -1.421875 29.984375 -1.421875 
Q 24.8125 -1.421875 18.96875 -0.25 
Q 13.140625 0.921875 6.890625 3.21875 
L 6.890625 13.375 
Q 12.890625 10.015625 18.65625 8.296875 
Q 24.421875 6.59375 29.984375 6.59375 
Q 38.421875 6.59375 43.015625 9.90625 
Q 47.609375 13.234375 47.609375 19.390625 
Q 47.609375 24.75 44.3125 27.78125 
Q 41.015625 30.8125 33.5 32.328125 
L 27.484375 33.5 
Q 16.453125 35.6875 11.515625 40.375 
Q 6.59375 45.0625 6.59375 53.421875 
Q 6.59375 63.09375 13.40625 68.65625 
Q 20.21875 74.21875 32.171875 74.21875 
Q 37.3125 74.21875 42.625 73.28125 
Q 47.953125 72.359375 53.515625 70.515625 
z
" id="DejaVuSans-53"/>
      <path d="M 52 44.1875 
Q 55.375 50.25 60.0625 53.125 
Q 64.75 56 71.09375 56 
Q 79.640625 56 84.28125 50.015625 
Q 88.921875 44.046875 88.921875 33.015625 
L 88.921875 0 
L 79.890625 0 
L 79.890625 32.71875 
Q 79.890625 40.578125 77.09375 44.375 
Q 74.3125 48.1875 68.609375 48.1875 
Q 61.625 48.1875 57.5625 43.546875 
Q 53.515625 38.921875 53.515625 30.90625 
L 53.515625 0 
L 44.484375 0 
L 44.484375 32.71875 
Q 44.484375 40.625 41.703125 44.40625 
Q 38.921875 48.1875 33.109375 48.1875 
Q 26.21875 48.1875 22.15625 43.53125 
Q 18.109375 38.875 18.109375 30.90625 
L 18.109375 0 
L 9.078125 0 
L 9.078125 54.6875 
L 18.109375 54.6875 
L 18.109375 46.1875 
Q 21.1875 51.21875 25.484375 53.609375 
Q 29.78125 56 35.6875 56 
Q 41.65625 56 45.828125 52.96875 
Q 50 49.953125 52 44.1875 
z
" id="DejaVuSans-6d"/>
      <path d="M 18.109375 8.203125 
L 18.109375 -20.796875 
L 9.078125 -20.796875 
L 9.078125 54.6875 
L 18.109375 54.6875 
L 18.109375 46.390625 
Q 20.953125 51.265625 25.265625 53.625 
Q 29.59375 56 35.59375 56 
Q 45.5625 56 51.78125 48.09375 
Q 58.015625 40.1875 58.015625 27.296875 
Q 58.015625 14.40625 51.78125 6.484375 
Q 45.5625 -1.421875 35.59375 -1.421875 
Q 29.59375 -1.421875 25.265625 0.953125 
Q 20.953125 3.328125 18.109375 8.203125 
z
M 48.6875 27.296875 
Q 48.6875 37.203125 44.609375 42.84375 
Q 40.53125 48.484375 33.40625 48.484375 
Q 26.265625 48.484375 22.1875 42.84375 
Q 18.109375 37.203125 18.109375 27.296875 
Q 18.109375 17.390625 22.1875 11.75 
Q 26.265625 6.109375 33.40625 6.109375 
Q 40.53125 6.109375 44.609375 11.75 
Q 48.6875 17.390625 48.6875 27.296875 
z
" id="DejaVuSans-70"/>
     </defs>
     <g transform="translate(308.184545 211.876563)scale(0.1 -0.1)">
      <use xlink:href="#DejaVuSans-50"/>
      <use x="60.255859" xlink:href="#DejaVuSans-65"/>
      <use x="121.779297" xlink:href="#DejaVuSans-72"/>
      <use x="162.861328" xlink:href="#DejaVuSans-63"/>
      <use x="217.841797" xlink:href="#DejaVuSans-65"/>
      <use x="279.365234" xlink:href="#DejaVuSans-6e"/>
      <use x="342.744141" xlink:href="#DejaVuSans-74"/>
      <use x="381.953125" xlink:href="#DejaVuSans-61"/>
      <use x="443.232422" xlink:href="#DejaVuSans-67"/>
      <use x="506.708984" xlink:href="#DejaVuSans-65"/>
      <use x="568.232422" xlink:href="#DejaVuSans-20"/>
      <use x="600.019531" xlink:href="#DejaVuSans-66"/>
      <use x="635.224609" xlink:href="#DejaVuSans-6f"/>
      <use x="696.40625" xlink:href="#DejaVuSans-20"/>
      <use x="728.193359" xlink:href="#DejaVuSans-53"/>
      <use x="791.669922" xlink:href="#DejaVuSans-61"/>
      <use x="852.949219" xlink:href="#DejaVuSans-6d"/>
      <use x="950.361328" xlink:href="#DejaVuSans-70"/>
      <use x="1013.837891" xlink:href="#DejaVuSans-6c"/>
      <use x="1041.621094" xlink:href="#DejaVuSans-65"/>
      <use x="1103.144531" xlink:href="#DejaVuSans-73"/>
     </g>
    </g>
   </g>
   <g id="matplotlib.axis_4">
    <g id="ytick_7">
     <g id="line2d_41">
      <g>
       <use style="stroke:#000000;stroke-width:0.8;" x="278.295652" xlink:href="#me67c69bbf8" y="183.6"/>
      </g>
     </g>
     <g id="text_20">
      <!-- 60 -->
      <g transform="translate(258.570652 187.399219)scale(0.1 -0.1)">
       <use xlink:href="#DejaVuSans-36"/>
       <use x="63.623047" xlink:href="#DejaVuSans-30"/>
      </g>
     </g>
    </g>
    <g id="ytick_8">
     <g id="line2d_42">
      <g>
       <use style="stroke:#000000;stroke-width:0.8;" x="278.295652" xlink:href="#me67c69bbf8" y="156.6"/>
      </g>
     </g>
     <g id="text_21">
      <!-- 65 -->
      <g transform="translate(258.570652 160.399219)scale(0.1 -0.1)">
       <use xlink:href="#DejaVuSans-36"/>
       <use x="63.623047" xlink:href="#DejaVuSans-35"/>
      </g>
     </g>
    </g>
    <g id="ytick_9">
     <g id="line2d_43">
      <g>
       <use style="stroke:#000000;stroke-width:0.8;" x="278.295652" xlink:href="#me67c69bbf8" y="129.6"/>
      </g>
     </g>
     <g id="text_22">
      <!-- 70 -->
      <g transform="translate(258.570652 133.399219)scale(0.1 -0.1)">
       <use xlink:href="#DejaVuSans-37"/>
       <use x="63.623047" xlink:href="#DejaVuSans-30"/>
      </g>
     </g>
    </g>
    <g id="ytick_10">
     <g id="line2d_44">
      <g>
       <use style="stroke:#000000;stroke-width:0.8;" x="278.295652" xlink:href="#me67c69bbf8" y="102.6"/>
      </g>
     </g>
     <g id="text_23">
      <!-- 75 -->
      <g transform="translate(258.570652 106.399219)scale(0.1 -0.1)">
       <use xlink:href="#DejaVuSans-37"/>
       <use x="63.623047" xlink:href="#DejaVuSans-35"/>
      </g>
     </g>
    </g>
    <g id="ytick_11">
     <g id="line2d_45">
      <g>
       <use style="stroke:#000000;stroke-width:0.8;" x="278.295652" xlink:href="#me67c69bbf8" y="75.6"/>
      </g>
     </g>
     <g id="text_24">
      <!-- 80 -->
      <g transform="translate(258.570652 79.399219)scale(0.1 -0.1)">
       <use xlink:href="#DejaVuSans-38"/>
       <use x="63.623047" xlink:href="#DejaVuSans-30"/>
      </g>
     </g>
    </g>
    <g id="ytick_12">
     <g id="line2d_46">
      <g>
       <use style="stroke:#000000;stroke-width:0.8;" x="278.295652" xlink:href="#me67c69bbf8" y="48.6"/>
      </g>
     </g>
     <g id="text_25">
      <!-- 85 -->
      <g transform="translate(258.570652 52.399219)scale(0.1 -0.1)">
       <use xlink:href="#DejaVuSans-38"/>
       <use x="63.623047" xlink:href="#DejaVuSans-35"/>
      </g>
     </g>
    </g>
    <g id="ytick_13">
     <g id="line2d_47">
      <g>
       <use style="stroke:#000000;stroke-width:0.8;" x="278.295652" xlink:href="#me67c69bbf8" y="21.6"/>
      </g>
     </g>
     <g id="text_26">
      <!-- 90 -->
      <g transform="translate(258.570652 25.399219)scale(0.1 -0.1)">
       <use xlink:href="#DejaVuSans-39"/>
       <use x="63.623047" xlink:href="#DejaVuSans-30"/>
      </g>
     </g>
    </g>
    <g id="text_27">
     <!-- Prediction Accuracy -->
     <defs>
      <path d="M 45.40625 46.390625 
L 45.40625 75.984375 
L 54.390625 75.984375 
L 54.390625 0 
L 45.40625 0 
L 45.40625 8.203125 
Q 42.578125 3.328125 38.25 0.953125 
Q 33.9375 -1.421875 27.875 -1.421875 
Q 17.96875 -1.421875 11.734375 6.484375 
Q 5.515625 14.40625 5.515625 27.296875 
Q 5.515625 40.1875 11.734375 48.09375 
Q 17.96875 56 27.875 56 
Q 33.9375 56 38.25 53.625 
Q 42.578125 51.265625 45.40625 46.390625 
z
M 14.796875 27.296875 
Q 14.796875 17.390625 18.875 11.75 
Q 22.953125 6.109375 30.078125 6.109375 
Q 37.203125 6.109375 41.296875 11.75 
Q 45.40625 17.390625 45.40625 27.296875 
Q 45.40625 37.203125 41.296875 42.84375 
Q 37.203125 48.484375 30.078125 48.484375 
Q 22.953125 48.484375 18.875 42.84375 
Q 14.796875 37.203125 14.796875 27.296875 
z
" id="DejaVuSans-64"/>
      <path d="M 34.1875 63.1875 
L 20.796875 26.90625 
L 47.609375 26.90625 
z
M 28.609375 72.90625 
L 39.796875 72.90625 
L 67.578125 0 
L 57.328125 0 
L 50.6875 18.703125 
L 17.828125 18.703125 
L 11.1875 0 
L 0.78125 0 
z
" id="DejaVuSans-41"/>
      <path d="M 8.5 21.578125 
L 8.5 54.6875 
L 17.484375 54.6875 
L 17.484375 21.921875 
Q 17.484375 14.15625 20.5 10.265625 
Q 23.53125 6.390625 29.59375 6.390625 
Q 36.859375 6.390625 41.078125 11.03125 
Q 45.3125 15.671875 45.3125 23.6875 
L 45.3125 54.6875 
L 54.296875 54.6875 
L 54.296875 0 
L 45.3125 0 
L 45.3125 8.40625 
Q 42.046875 3.421875 37.71875 1 
Q 33.40625 -1.421875 27.6875 -1.421875 
Q 18.265625 -1.421875 13.375 4.4375 
Q 8.5 10.296875 8.5 21.578125 
z
M 31.109375 56 
z
" id="DejaVuSans-75"/>
      <path d="M 32.171875 -5.078125 
Q 28.375 -14.84375 24.75 -17.8125 
Q 21.140625 -20.796875 15.09375 -20.796875 
L 7.90625 -20.796875 
L 7.90625 -13.28125 
L 13.1875 -13.28125 
Q 16.890625 -13.28125 18.9375 -11.515625 
Q 21 -9.765625 23.484375 -3.21875 
L 25.09375 0.875 
L 2.984375 54.6875 
L 12.5 54.6875 
L 29.59375 11.921875 
L 46.6875 54.6875 
L 56.203125 54.6875 
z
" id="DejaVuSans-79"/>
     </defs>
     <g transform="translate(252.490965 152.138281)rotate(-90)scale(0.1 -0.1)">
      <use xlink:href="#DejaVuSans-50"/>
      <use x="60.287109" xlink:href="#DejaVuSans-72"/>
      <use x="101.369141" xlink:href="#DejaVuSans-65"/>
      <use x="162.892578" xlink:href="#DejaVuSans-64"/>
      <use x="226.369141" xlink:href="#DejaVuSans-69"/>
      <use x="254.152344" xlink:href="#DejaVuSans-63"/>
      <use x="309.132812" xlink:href="#DejaVuSans-74"/>
      <use x="348.341797" xlink:href="#DejaVuSans-69"/>
      <use x="376.125" xlink:href="#DejaVuSans-6f"/>
      <use x="437.306641" xlink:href="#DejaVuSans-6e"/>
      <use x="500.685547" xlink:href="#DejaVuSans-20"/>
      <use x="532.472656" xlink:href="#DejaVuSans-41"/>
      <use x="600.865234" xlink:href="#DejaVuSans-63"/>
      <use x="655.845703" xlink:href="#DejaVuSans-63"/>
      <use x="710.826172" xlink:href="#DejaVuSans-75"/>
      <use x="774.205078" xlink:href="#DejaVuSans-72"/>
      <use x="815.318359" xlink:href="#DejaVuSans-61"/>
      <use x="876.597656" xlink:href="#DejaVuSans-63"/>
      <use x="931.578125" xlink:href="#DejaVuSans-79"/>
     </g>
    </g>
   </g>
   <g id="line2d_48">
    <path clip-path="url(#p29c4f6ec99)" d="M 278.295652 43.2 
L 295.886275 44.82 
L 306.176129 48.6 
L 313.476897 55.62 
L 319.139812 54 
L 323.766751 58.32 
L 327.678772 55.62 
L 331.067519 58.32 
L 334.056606 61.02 
L 336.730435 69.12 
L 354.321057 71.82 
L 364.610912 77.76 
L 371.911679 77.22 
L 377.574595 83.16 
L 382.201534 86.4 
L 386.113555 85.86 
L 389.502302 89.1 
L 392.491388 89.1 
L 395.165217 96.66 
L 412.75584 98.82 
L 423.045694 108 
L 430.346462 111.24 
L 436.009378 120.96 
L 440.636317 127.98 
L 444.548338 132.84 
L 447.937084 137.7 
L 450.926171 144.18 
L 453.6 145.8 
" style="fill:none;stroke:#ffa500;stroke-dasharray:0.5,1,0.5,1;stroke-dashoffset:0;stroke-width:0.5;"/>
    <defs>
     <path d="M 0 -1 
L -1 1 
L 1 1 
z
" id="m8a0c2d263e" style="stroke:#ffa500;stroke-linejoin:miter;"/>
    </defs>
    <g clip-path="url(#p29c4f6ec99)">
     <use style="fill:#ffa500;stroke:#ffa500;stroke-linejoin:miter;" x="278.295652" xlink:href="#m8a0c2d263e" y="43.2"/>
     <use style="fill:#ffa500;stroke:#ffa500;stroke-linejoin:miter;" x="295.886275" xlink:href="#m8a0c2d263e" y="44.82"/>
     <use style="fill:#ffa500;stroke:#ffa500;stroke-linejoin:miter;" x="306.176129" xlink:href="#m8a0c2d263e" y="48.6"/>
     <use style="fill:#ffa500;stroke:#ffa500;stroke-linejoin:miter;" x="313.476897" xlink:href="#m8a0c2d263e" y="55.62"/>
     <use style="fill:#ffa500;stroke:#ffa500;stroke-linejoin:miter;" x="319.139812" xlink:href="#m8a0c2d263e" y="54"/>
     <use style="fill:#ffa500;stroke:#ffa500;stroke-linejoin:miter;" x="323.766751" xlink:href="#m8a0c2d263e" y="58.32"/>
     <use style="fill:#ffa500;stroke:#ffa500;stroke-linejoin:miter;" x="327.678772" xlink:href="#m8a0c2d263e" y="55.62"/>
     <use style="fill:#ffa500;stroke:#ffa500;stroke-linejoin:miter;" x="331.067519" xlink:href="#m8a0c2d263e" y="58.32"/>
     <use style="fill:#ffa500;stroke:#ffa500;stroke-linejoin:miter;" x="334.056606" xlink:href="#m8a0c2d263e" y="61.02"/>
     <use style="fill:#ffa500;stroke:#ffa500;stroke-linejoin:miter;" x="336.730435" xlink:href="#m8a0c2d263e" y="69.12"/>
     <use style="fill:#ffa500;stroke:#ffa500;stroke-linejoin:miter;" x="354.321057" xlink:href="#m8a0c2d263e" y="71.82"/>
     <use style="fill:#ffa500;stroke:#ffa500;stroke-linejoin:miter;" x="364.610912" xlink:href="#m8a0c2d263e" y="77.76"/>
     <use style="fill:#ffa500;stroke:#ffa500;stroke-linejoin:miter;" x="371.911679" xlink:href="#m8a0c2d263e" y="77.22"/>
     <use style="fill:#ffa500;stroke:#ffa500;stroke-linejoin:miter;" x="377.574595" xlink:href="#m8a0c2d263e" y="83.16"/>
     <use style="fill:#ffa500;stroke:#ffa500;stroke-linejoin:miter;" x="382.201534" xlink:href="#m8a0c2d263e" y="86.4"/>
     <use style="fill:#ffa500;stroke:#ffa500;stroke-linejoin:miter;" x="386.113555" xlink:href="#m8a0c2d263e" y="85.86"/>
     <use style="fill:#ffa500;stroke:#ffa500;stroke-linejoin:miter;" x="389.502302" xlink:href="#m8a0c2d263e" y="89.1"/>
     <use style="fill:#ffa500;stroke:#ffa500;stroke-linejoin:miter;" x="392.491388" xlink:href="#m8a0c2d263e" y="89.1"/>
     <use style="fill:#ffa500;stroke:#ffa500;stroke-linejoin:miter;" x="395.165217" xlink:href="#m8a0c2d263e" y="96.66"/>
     <use style="fill:#ffa500;stroke:#ffa500;stroke-linejoin:miter;" x="412.75584" xlink:href="#m8a0c2d263e" y="98.82"/>
     <use style="fill:#ffa500;stroke:#ffa500;stroke-linejoin:miter;" x="423.045694" xlink:href="#m8a0c2d263e" y="108"/>
     <use style="fill:#ffa500;stroke:#ffa500;stroke-linejoin:miter;" x="430.346462" xlink:href="#m8a0c2d263e" y="111.24"/>
     <use style="fill:#ffa500;stroke:#ffa500;stroke-linejoin:miter;" x="436.009378" xlink:href="#m8a0c2d263e" y="120.96"/>
     <use style="fill:#ffa500;stroke:#ffa500;stroke-linejoin:miter;" x="440.636317" xlink:href="#m8a0c2d263e" y="127.98"/>
     <use style="fill:#ffa500;stroke:#ffa500;stroke-linejoin:miter;" x="444.548338" xlink:href="#m8a0c2d263e" y="132.84"/>
     <use style="fill:#ffa500;stroke:#ffa500;stroke-linejoin:miter;" x="447.937084" xlink:href="#m8a0c2d263e" y="137.7"/>
     <use style="fill:#ffa500;stroke:#ffa500;stroke-linejoin:miter;" x="450.926171" xlink:href="#m8a0c2d263e" y="144.18"/>
     <use style="fill:#ffa500;stroke:#ffa500;stroke-linejoin:miter;" x="453.6" xlink:href="#m8a0c2d263e" y="145.8"/>
    </g>
   </g>
   <g id="line2d_49">
    <path clip-path="url(#p29c4f6ec99)" d="M 278.295652 41.04 
L 295.886275 42.66 
L 306.176129 50.22 
L 313.476897 51.3 
L 319.139812 48.33 
L 323.766751 49.14 
L 327.678772 52.38 
L 331.067519 56.7 
L 334.056606 61.02 
L 336.730435 62.64 
L 354.321057 63.72 
L 364.610912 64.8 
L 371.911679 64.26 
L 377.574595 68.58 
L 382.201534 71.82 
L 386.113555 77.22 
L 389.502302 80.46 
L 392.491388 81 
L 395.165217 84.24 
L 412.75584 86.4 
L 423.045694 92.88 
L 430.346462 100.44 
L 436.009378 104.22 
L 440.636317 111.24 
L 444.548338 118.26 
L 447.937084 120.42 
L 450.926171 127.98 
L 453.6 133.38 
" style="fill:none;stroke:#b22222;stroke-dasharray:0.5,0.5,1,0.5;stroke-dashoffset:0;stroke-width:0.5;"/>
    <defs>
     <path d="M -0 1 
L 1 -1 
L -1 -1 
z
" id="m237af8727e" style="stroke:#b22222;stroke-linejoin:miter;"/>
    </defs>
    <g clip-path="url(#p29c4f6ec99)">
     <use style="fill:#b22222;stroke:#b22222;stroke-linejoin:miter;" x="278.295652" xlink:href="#m237af8727e" y="41.04"/>
     <use style="fill:#b22222;stroke:#b22222;stroke-linejoin:miter;" x="295.886275" xlink:href="#m237af8727e" y="42.66"/>
     <use style="fill:#b22222;stroke:#b22222;stroke-linejoin:miter;" x="306.176129" xlink:href="#m237af8727e" y="50.22"/>
     <use style="fill:#b22222;stroke:#b22222;stroke-linejoin:miter;" x="313.476897" xlink:href="#m237af8727e" y="51.3"/>
     <use style="fill:#b22222;stroke:#b22222;stroke-linejoin:miter;" x="319.139812" xlink:href="#m237af8727e" y="48.33"/>
     <use style="fill:#b22222;stroke:#b22222;stroke-linejoin:miter;" x="323.766751" xlink:href="#m237af8727e" y="49.14"/>
     <use style="fill:#b22222;stroke:#b22222;stroke-linejoin:miter;" x="327.678772" xlink:href="#m237af8727e" y="52.38"/>
     <use style="fill:#b22222;stroke:#b22222;stroke-linejoin:miter;" x="331.067519" xlink:href="#m237af8727e" y="56.7"/>
     <use style="fill:#b22222;stroke:#b22222;stroke-linejoin:miter;" x="334.056606" xlink:href="#m237af8727e" y="61.02"/>
     <use style="fill:#b22222;stroke:#b22222;stroke-linejoin:miter;" x="336.730435" xlink:href="#m237af8727e" y="62.64"/>
     <use style="fill:#b22222;stroke:#b22222;stroke-linejoin:miter;" x="354.321057" xlink:href="#m237af8727e" y="63.72"/>
     <use style="fill:#b22222;stroke:#b22222;stroke-linejoin:miter;" x="364.610912" xlink:href="#m237af8727e" y="64.8"/>
     <use style="fill:#b22222;stroke:#b22222;stroke-linejoin:miter;" x="371.911679" xlink:href="#m237af8727e" y="64.26"/>
     <use style="fill:#b22222;stroke:#b22222;stroke-linejoin:miter;" x="377.574595" xlink:href="#m237af8727e" y="68.58"/>
     <use style="fill:#b22222;stroke:#b22222;stroke-linejoin:miter;" x="382.201534" xlink:href="#m237af8727e" y="71.82"/>
     <use style="fill:#b22222;stroke:#b22222;stroke-linejoin:miter;" x="386.113555" xlink:href="#m237af8727e" y="77.22"/>
     <use style="fill:#b22222;stroke:#b22222;stroke-linejoin:miter;" x="389.502302" xlink:href="#m237af8727e" y="80.46"/>
     <use style="fill:#b22222;stroke:#b22222;stroke-linejoin:miter;" x="392.491388" xlink:href="#m237af8727e" y="81"/>
     <use style="fill:#b22222;stroke:#b22222;stroke-linejoin:miter;" x="395.165217" xlink:href="#m237af8727e" y="84.24"/>
     <use style="fill:#b22222;stroke:#b22222;stroke-linejoin:miter;" x="412.75584" xlink:href="#m237af8727e" y="86.4"/>
     <use style="fill:#b22222;stroke:#b22222;stroke-linejoin:miter;" x="423.045694" xlink:href="#m237af8727e" y="92.88"/>
     <use style="fill:#b22222;stroke:#b22222;stroke-linejoin:miter;" x="430.346462" xlink:href="#m237af8727e" y="100.44"/>
     <use style="fill:#b22222;stroke:#b22222;stroke-linejoin:miter;" x="436.009378" xlink:href="#m237af8727e" y="104.22"/>
     <use style="fill:#b22222;stroke:#b22222;stroke-linejoin:miter;" x="440.636317" xlink:href="#m237af8727e" y="111.24"/>
     <use style="fill:#b22222;stroke:#b22222;stroke-linejoin:miter;" x="444.548338" xlink:href="#m237af8727e" y="118.26"/>
     <use style="fill:#b22222;stroke:#b22222;stroke-linejoin:miter;" x="447.937084" xlink:href="#m237af8727e" y="120.42"/>
     <use style="fill:#b22222;stroke:#b22222;stroke-linejoin:miter;" x="450.926171" xlink:href="#m237af8727e" y="127.98"/>
     <use style="fill:#b22222;stroke:#b22222;stroke-linejoin:miter;" x="453.6" xlink:href="#m237af8727e" y="133.38"/>
    </g>
   </g>
   <g id="line2d_50">
    <path clip-path="url(#p29c4f6ec99)" d="M 278.295652 34.02 
L 295.886275 38.34 
L 306.176129 43.2 
L 313.476897 45.36 
L 319.139812 43.74 
L 323.766751 48.6 
L 327.678772 45.9 
L 331.067519 48.06 
L 334.056606 52.38 
L 336.730435 59.4 
L 354.321057 57.78 
L 364.610912 61.02 
L 371.911679 64.26 
L 377.574595 63.18 
L 382.201534 63.72 
L 386.113555 66.96 
L 389.502302 67.5 
L 392.491388 70.2 
L 395.165217 73.98 
L 412.75584 77.76 
L 423.045694 79.38 
L 430.346462 86.4 
L 436.009378 92.88 
L 440.636317 101.52 
L 444.548338 104.76 
L 447.937084 111.78 
L 450.926171 116.64 
L 453.6 118.26 
" style="fill:none;stroke:#6495ed;stroke-dasharray:1,1,1,1;stroke-dashoffset:0;stroke-width:0.5;"/>
    <defs>
     <path d="M -1 1 
L 1 1 
L 1 -1 
L -1 -1 
z
" id="m0895e05341" style="stroke:#6495ed;stroke-linejoin:miter;"/>
    </defs>
    <g clip-path="url(#p29c4f6ec99)">
     <use style="fill:#6495ed;stroke:#6495ed;stroke-linejoin:miter;" x="278.295652" xlink:href="#m0895e05341" y="34.02"/>
     <use style="fill:#6495ed;stroke:#6495ed;stroke-linejoin:miter;" x="295.886275" xlink:href="#m0895e05341" y="38.34"/>
     <use style="fill:#6495ed;stroke:#6495ed;stroke-linejoin:miter;" x="306.176129" xlink:href="#m0895e05341" y="43.2"/>
     <use style="fill:#6495ed;stroke:#6495ed;stroke-linejoin:miter;" x="313.476897" xlink:href="#m0895e05341" y="45.36"/>
     <use style="fill:#6495ed;stroke:#6495ed;stroke-linejoin:miter;" x="319.139812" xlink:href="#m0895e05341" y="43.74"/>
     <use style="fill:#6495ed;stroke:#6495ed;stroke-linejoin:miter;" x="323.766751" xlink:href="#m0895e05341" y="48.6"/>
     <use style="fill:#6495ed;stroke:#6495ed;stroke-linejoin:miter;" x="327.678772" xlink:href="#m0895e05341" y="45.9"/>
     <use style="fill:#6495ed;stroke:#6495ed;stroke-linejoin:miter;" x="331.067519" xlink:href="#m0895e05341" y="48.06"/>
     <use style="fill:#6495ed;stroke:#6495ed;stroke-linejoin:miter;" x="334.056606" xlink:href="#m0895e05341" y="52.38"/>
     <use style="fill:#6495ed;stroke:#6495ed;stroke-linejoin:miter;" x="336.730435" xlink:href="#m0895e05341" y="59.4"/>
     <use style="fill:#6495ed;stroke:#6495ed;stroke-linejoin:miter;" x="354.321057" xlink:href="#m0895e05341" y="57.78"/>
     <use style="fill:#6495ed;stroke:#6495ed;stroke-linejoin:miter;" x="364.610912" xlink:href="#m0895e05341" y="61.02"/>
     <use style="fill:#6495ed;stroke:#6495ed;stroke-linejoin:miter;" x="371.911679" xlink:href="#m0895e05341" y="64.26"/>
     <use style="fill:#6495ed;stroke:#6495ed;stroke-linejoin:miter;" x="377.574595" xlink:href="#m0895e05341" y="63.18"/>
     <use style="fill:#6495ed;stroke:#6495ed;stroke-linejoin:miter;" x="382.201534" xlink:href="#m0895e05341" y="63.72"/>
     <use style="fill:#6495ed;stroke:#6495ed;stroke-linejoin:miter;" x="386.113555" xlink:href="#m0895e05341" y="66.96"/>
     <use style="fill:#6495ed;stroke:#6495ed;stroke-linejoin:miter;" x="389.502302" xlink:href="#m0895e05341" y="67.5"/>
     <use style="fill:#6495ed;stroke:#6495ed;stroke-linejoin:miter;" x="392.491388" xlink:href="#m0895e05341" y="70.2"/>
     <use style="fill:#6495ed;stroke:#6495ed;stroke-linejoin:miter;" x="395.165217" xlink:href="#m0895e05341" y="73.98"/>
     <use style="fill:#6495ed;stroke:#6495ed;stroke-linejoin:miter;" x="412.75584" xlink:href="#m0895e05341" y="77.76"/>
     <use style="fill:#6495ed;stroke:#6495ed;stroke-linejoin:miter;" x="423.045694" xlink:href="#m0895e05341" y="79.38"/>
     <use style="fill:#6495ed;stroke:#6495ed;stroke-linejoin:miter;" x="430.346462" xlink:href="#m0895e05341" y="86.4"/>
     <use style="fill:#6495ed;stroke:#6495ed;stroke-linejoin:miter;" x="436.009378" xlink:href="#m0895e05341" y="92.88"/>
     <use style="fill:#6495ed;stroke:#6495ed;stroke-linejoin:miter;" x="440.636317" xlink:href="#m0895e05341" y="101.52"/>
     <use style="fill:#6495ed;stroke:#6495ed;stroke-linejoin:miter;" x="444.548338" xlink:href="#m0895e05341" y="104.76"/>
     <use style="fill:#6495ed;stroke:#6495ed;stroke-linejoin:miter;" x="447.937084" xlink:href="#m0895e05341" y="111.78"/>
     <use style="fill:#6495ed;stroke:#6495ed;stroke-linejoin:miter;" x="450.926171" xlink:href="#m0895e05341" y="116.64"/>
     <use style="fill:#6495ed;stroke:#6495ed;stroke-linejoin:miter;" x="453.6" xlink:href="#m0895e05341" y="118.26"/>
    </g>
   </g>
   <g id="line2d_51">
    <path clip-path="url(#p29c4f6ec99)" d="M 278.295652 29.7 
L 295.886275 29.7 
L 306.176129 29.916 
L 313.476897 29.808 
L 319.139812 30.24 
L 323.766751 30.24 
L 327.678772 30.78 
L 331.067519 31.266 
L 334.056606 31.482 
L 336.730435 37.26 
L 354.321057 37.8 
L 364.610912 38.88 
L 371.911679 40.5 
L 377.574595 43.74 
L 382.201534 42.66 
L 386.113555 46.44 
L 389.502302 49.68 
L 392.491388 51.84 
L 395.165217 54 
L 412.75584 58.32 
L 423.045694 56.16 
L 430.346462 61.56 
L 436.009378 64.8 
L 440.636317 65.88 
L 444.548338 66.42 
L 447.937084 73.98 
L 450.926171 78.3 
L 453.6 85.32 
" style="fill:none;stroke:#228b22;stroke-dasharray:0.25,1,0.25,1;stroke-dashoffset:0;stroke-width:0.5;"/>
    <defs>
     <path d="M 0 1 
C 0.265203 1 0.51958 0.894634 0.707107 0.707107 
C 0.894634 0.51958 1 0.265203 1 0 
C 1 -0.265203 0.894634 -0.51958 0.707107 -0.707107 
C 0.51958 -0.894634 0.265203 -1 0 -1 
C -0.265203 -1 -0.51958 -0.894634 -0.707107 -0.707107 
C -0.894634 -0.51958 -1 -0.265203 -1 0 
C -1 0.265203 -0.894634 0.51958 -0.707107 0.707107 
C -0.51958 0.894634 -0.265203 1 0 1 
z
" id="m0ef42840df" style="stroke:#228b22;"/>
    </defs>
    <g clip-path="url(#p29c4f6ec99)">
     <use style="fill:#228b22;stroke:#228b22;" x="278.295652" xlink:href="#m0ef42840df" y="29.7"/>
     <use style="fill:#228b22;stroke:#228b22;" x="295.886275" xlink:href="#m0ef42840df" y="29.7"/>
     <use style="fill:#228b22;stroke:#228b22;" x="306.176129" xlink:href="#m0ef42840df" y="29.916"/>
     <use style="fill:#228b22;stroke:#228b22;" x="313.476897" xlink:href="#m0ef42840df" y="29.808"/>
     <use style="fill:#228b22;stroke:#228b22;" x="319.139812" xlink:href="#m0ef42840df" y="30.24"/>
     <use style="fill:#228b22;stroke:#228b22;" x="323.766751" xlink:href="#m0ef42840df" y="30.24"/>
     <use style="fill:#228b22;stroke:#228b22;" x="327.678772" xlink:href="#m0ef42840df" y="30.78"/>
     <use style="fill:#228b22;stroke:#228b22;" x="331.067519" xlink:href="#m0ef42840df" y="31.266"/>
     <use style="fill:#228b22;stroke:#228b22;" x="334.056606" xlink:href="#m0ef42840df" y="31.482"/>
     <use style="fill:#228b22;stroke:#228b22;" x="336.730435" xlink:href="#m0ef42840df" y="37.26"/>
     <use style="fill:#228b22;stroke:#228b22;" x="354.321057" xlink:href="#m0ef42840df" y="37.8"/>
     <use style="fill:#228b22;stroke:#228b22;" x="364.610912" xlink:href="#m0ef42840df" y="38.88"/>
     <use style="fill:#228b22;stroke:#228b22;" x="371.911679" xlink:href="#m0ef42840df" y="40.5"/>
     <use style="fill:#228b22;stroke:#228b22;" x="377.574595" xlink:href="#m0ef42840df" y="43.74"/>
     <use style="fill:#228b22;stroke:#228b22;" x="382.201534" xlink:href="#m0ef42840df" y="42.66"/>
     <use style="fill:#228b22;stroke:#228b22;" x="386.113555" xlink:href="#m0ef42840df" y="46.44"/>
     <use style="fill:#228b22;stroke:#228b22;" x="389.502302" xlink:href="#m0ef42840df" y="49.68"/>
     <use style="fill:#228b22;stroke:#228b22;" x="392.491388" xlink:href="#m0ef42840df" y="51.84"/>
     <use style="fill:#228b22;stroke:#228b22;" x="395.165217" xlink:href="#m0ef42840df" y="54"/>
     <use style="fill:#228b22;stroke:#228b22;" x="412.75584" xlink:href="#m0ef42840df" y="58.32"/>
     <use style="fill:#228b22;stroke:#228b22;" x="423.045694" xlink:href="#m0ef42840df" y="56.16"/>
     <use style="fill:#228b22;stroke:#228b22;" x="430.346462" xlink:href="#m0ef42840df" y="61.56"/>
     <use style="fill:#228b22;stroke:#228b22;" x="436.009378" xlink:href="#m0ef42840df" y="64.8"/>
     <use style="fill:#228b22;stroke:#228b22;" x="440.636317" xlink:href="#m0ef42840df" y="65.88"/>
     <use style="fill:#228b22;stroke:#228b22;" x="444.548338" xlink:href="#m0ef42840df" y="66.42"/>
     <use style="fill:#228b22;stroke:#228b22;" x="447.937084" xlink:href="#m0ef42840df" y="73.98"/>
     <use style="fill:#228b22;stroke:#228b22;" x="450.926171" xlink:href="#m0ef42840df" y="78.3"/>
     <use style="fill:#228b22;stroke:#228b22;" x="453.6" xlink:href="#m0ef42840df" y="85.32"/>
    </g>
   </g>
   <g id="patch_8">
    <path d="M 278.295652 183.6 
L 278.295652 21.6 
" style="fill:none;stroke:#000000;stroke-linecap:square;stroke-linejoin:miter;stroke-width:0.8;"/>
   </g>
   <g id="patch_9">
    <path d="M 453.6 183.6 
L 453.6 21.6 
" style="fill:none;stroke:#000000;stroke-linecap:square;stroke-linejoin:miter;stroke-width:0.8;"/>
   </g>
   <g id="patch_10">
    <path d="M 278.295652 183.6 
L 453.6 183.6 
" style="fill:none;stroke:#000000;stroke-linecap:square;stroke-linejoin:miter;stroke-width:0.8;"/>
   </g>
   <g id="patch_11">
    <path d="M 278.295652 21.6 
L 453.6 21.6 
" style="fill:none;stroke:#000000;stroke-linecap:square;stroke-linejoin:miter;stroke-width:0.8;"/>
   </g>
   <g id="legend_1">
    <g id="patch_12">
     <path d="M 212.95642 58.95625 
L 518.939232 58.95625 
Q 520.939232 58.95625 520.939232 56.95625 
L 520.939232 28.6 
Q 520.939232 26.6 518.939232 26.6 
L 212.95642 26.6 
Q 210.95642 26.6 210.95642 28.6 
L 210.95642 56.95625 
Q 210.95642 58.95625 212.95642 58.95625 
z
" style="fill:#ffffff;opacity:0.8;stroke:#cccccc;stroke-linejoin:miter;"/>
    </g>
    <g id="line2d_52">
     <path d="M 214.95642 34.698438 
L 234.95642 34.698438 
" style="fill:none;stroke:#ffa500;stroke-dasharray:0.5,1,0.5,1;stroke-dashoffset:0;stroke-width:0.5;"/>
    </g>
    <g id="line2d_53">
     <g>
      <use style="fill:#ffa500;stroke:#ffa500;stroke-linejoin:miter;" x="224.95642" xlink:href="#m8a0c2d263e" y="34.698438"/>
     </g>
    </g>
    <g id="text_28">
     <!-- AlexNet -->
     <defs>
      <path d="M 54.890625 54.6875 
L 35.109375 28.078125 
L 55.90625 0 
L 45.3125 0 
L 29.390625 21.484375 
L 13.484375 0 
L 2.875 0 
L 24.125 28.609375 
L 4.6875 54.6875 
L 15.28125 54.6875 
L 29.78125 35.203125 
L 44.28125 54.6875 
z
" id="DejaVuSans-78"/>
      <path d="M 9.8125 72.90625 
L 23.09375 72.90625 
L 55.421875 11.921875 
L 55.421875 72.90625 
L 64.984375 72.90625 
L 64.984375 0 
L 51.703125 0 
L 19.390625 60.984375 
L 19.390625 0 
L 9.8125 0 
z
" id="DejaVuSans-4e"/>
     </defs>
     <g transform="translate(242.95642 38.198438)scale(0.1 -0.1)">
      <use xlink:href="#DejaVuSans-41"/>
      <use x="68.408203" xlink:href="#DejaVuSans-6c"/>
      <use x="96.191406" xlink:href="#DejaVuSans-65"/>
      <use x="157.699219" xlink:href="#DejaVuSans-78"/>
      <use x="216.878906" xlink:href="#DejaVuSans-4e"/>
      <use x="291.683594" xlink:href="#DejaVuSans-65"/>
      <use x="353.207031" xlink:href="#DejaVuSans-74"/>
     </g>
    </g>
    <g id="line2d_54">
     <path d="M 214.95642 49.376563 
L 234.95642 49.376563 
" style="fill:none;stroke:#b22222;stroke-dasharray:0.5,0.5,1,0.5;stroke-dashoffset:0;stroke-width:0.5;"/>
    </g>
    <g id="line2d_55">
     <g>
      <use style="fill:#b22222;stroke:#b22222;stroke-linejoin:miter;" x="224.95642" xlink:href="#m237af8727e" y="49.376563"/>
     </g>
    </g>
    <g id="text_29">
     <!-- ResNet -->
     <g transform="translate(242.95642 52.876563)scale(0.1 -0.1)">
      <use xlink:href="#DejaVuSans-52"/>
      <use x="69.419922" xlink:href="#DejaVuSans-65"/>
      <use x="130.943359" xlink:href="#DejaVuSans-73"/>
      <use x="183.042969" xlink:href="#DejaVuSans-4e"/>
      <use x="257.847656" xlink:href="#DejaVuSans-65"/>
      <use x="319.371094" xlink:href="#DejaVuSans-74"/>
     </g>
    </g>
    <g id="line2d_56">
     <path d="M 302.20017 34.698438 
L 322.20017 34.698438 
" style="fill:none;stroke:#6495ed;stroke-dasharray:1,1,1,1;stroke-dashoffset:0;stroke-width:0.5;"/>
    </g>
    <g id="line2d_57">
     <g>
      <use style="fill:#6495ed;stroke:#6495ed;stroke-linejoin:miter;" x="312.20017" xlink:href="#m0895e05341" y="34.698438"/>
     </g>
    </g>
    <g id="text_30">
     <!-- DenseNet-BC -->
     <defs>
      <path d="M 19.671875 64.796875 
L 19.671875 8.109375 
L 31.59375 8.109375 
Q 46.6875 8.109375 53.6875 14.9375 
Q 60.6875 21.78125 60.6875 36.53125 
Q 60.6875 51.171875 53.6875 57.984375 
Q 46.6875 64.796875 31.59375 64.796875 
z
M 9.8125 72.90625 
L 30.078125 72.90625 
Q 51.265625 72.90625 61.171875 64.09375 
Q 71.09375 55.28125 71.09375 36.53125 
Q 71.09375 17.671875 61.125 8.828125 
Q 51.171875 0 30.078125 0 
L 9.8125 0 
z
" id="DejaVuSans-44"/>
      <path d="M 4.890625 31.390625 
L 31.203125 31.390625 
L 31.203125 23.390625 
L 4.890625 23.390625 
z
" id="DejaVuSans-2d"/>
      <path d="M 19.671875 34.8125 
L 19.671875 8.109375 
L 35.5 8.109375 
Q 43.453125 8.109375 47.28125 11.40625 
Q 51.125 14.703125 51.125 21.484375 
Q 51.125 28.328125 47.28125 31.5625 
Q 43.453125 34.8125 35.5 34.8125 
z
M 19.671875 64.796875 
L 19.671875 42.828125 
L 34.28125 42.828125 
Q 41.5 42.828125 45.03125 45.53125 
Q 48.578125 48.25 48.578125 53.8125 
Q 48.578125 59.328125 45.03125 62.0625 
Q 41.5 64.796875 34.28125 64.796875 
z
M 9.8125 72.90625 
L 35.015625 72.90625 
Q 46.296875 72.90625 52.390625 68.21875 
Q 58.5 63.53125 58.5 54.890625 
Q 58.5 48.1875 55.375 44.234375 
Q 52.25 40.28125 46.1875 39.3125 
Q 53.46875 37.75 57.5 32.78125 
Q 61.53125 27.828125 61.53125 20.40625 
Q 61.53125 10.640625 54.890625 5.3125 
Q 48.25 0 35.984375 0 
L 9.8125 0 
z
" id="DejaVuSans-42"/>
      <path d="M 64.40625 67.28125 
L 64.40625 56.890625 
Q 59.421875 61.53125 53.78125 63.8125 
Q 48.140625 66.109375 41.796875 66.109375 
Q 29.296875 66.109375 22.65625 58.46875 
Q 16.015625 50.828125 16.015625 36.375 
Q 16.015625 21.96875 22.65625 14.328125 
Q 29.296875 6.6875 41.796875 6.6875 
Q 48.140625 6.6875 53.78125 8.984375 
Q 59.421875 11.28125 64.40625 15.921875 
L 64.40625 5.609375 
Q 59.234375 2.09375 53.4375 0.328125 
Q 47.65625 -1.421875 41.21875 -1.421875 
Q 24.65625 -1.421875 15.125 8.703125 
Q 5.609375 18.84375 5.609375 36.375 
Q 5.609375 53.953125 15.125 64.078125 
Q 24.65625 74.21875 41.21875 74.21875 
Q 47.75 74.21875 53.53125 72.484375 
Q 59.328125 70.75 64.40625 67.28125 
z
" id="DejaVuSans-43"/>
     </defs>
     <g transform="translate(330.20017 38.198438)scale(0.1 -0.1)">
      <use xlink:href="#DejaVuSans-44"/>
      <use x="77.001953" xlink:href="#DejaVuSans-65"/>
      <use x="138.525391" xlink:href="#DejaVuSans-6e"/>
      <use x="201.904297" xlink:href="#DejaVuSans-73"/>
      <use x="254.003906" xlink:href="#DejaVuSans-65"/>
      <use x="315.527344" xlink:href="#DejaVuSans-4e"/>
      <use x="390.332031" xlink:href="#DejaVuSans-65"/>
      <use x="451.855469" xlink:href="#DejaVuSans-74"/>
      <use x="491.064453" xlink:href="#DejaVuSans-2d"/>
      <use x="527.101562" xlink:href="#DejaVuSans-42"/>
      <use x="595.689453" xlink:href="#DejaVuSans-43"/>
     </g>
    </g>
    <g id="line2d_58">
     <path d="M 416.753295 34.698438 
L 436.753295 34.698438 
" style="fill:none;stroke:#228b22;stroke-dasharray:0.25,1,0.25,1;stroke-dashoffset:0;stroke-width:0.5;"/>
    </g>
    <g id="line2d_59">
     <g>
      <use style="fill:#228b22;stroke:#228b22;" x="426.753295" xlink:href="#m0ef42840df" y="34.698438"/>
     </g>
    </g>
    <g id="text_31">
     <!-- Deep-CapsNet -->
     <g transform="translate(444.753295 38.198438)scale(0.1 -0.1)">
      <use xlink:href="#DejaVuSans-44"/>
      <use x="77.001953" xlink:href="#DejaVuSans-65"/>
      <use x="138.525391" xlink:href="#DejaVuSans-65"/>
      <use x="200.048828" xlink:href="#DejaVuSans-70"/>
      <use x="263.525391" xlink:href="#DejaVuSans-2d"/>
      <use x="299.609375" xlink:href="#DejaVuSans-43"/>
      <use x="369.433594" xlink:href="#DejaVuSans-61"/>
      <use x="430.712891" xlink:href="#DejaVuSans-70"/>
      <use x="494.189453" xlink:href="#DejaVuSans-73"/>
      <use x="546.289062" xlink:href="#DejaVuSans-4e"/>
      <use x="621.09375" xlink:href="#DejaVuSans-65"/>
      <use x="682.617188" xlink:href="#DejaVuSans-74"/>
     </g>
    </g>
   </g>
  </g>
 </g>
 <defs>
  <clipPath id="p29c4f6ec99">
   <rect height="162" width="175.304348" x="278.295652" y="21.6"/>
  </clipPath>
 </defs>
</svg>
